<?xml version="1.0" encoding="utf-8"?>
<!-- Generator: Adobe Illustrator 25.3.1, SVG Export Plug-In . SVG Version: 6.00 Build 0)  -->
<svg version="1.1" xmlns="http://www.w3.org/2000/svg" xmlns:xlink="http://www.w3.org/1999/xlink" x="0px" y="0px"
	 viewBox="0 0 595.28 841.89" style="enable-background:new 0 0 595.28 841.89;" xml:space="preserve">
<style type="text/css">
	.st0{display:none;}
	.st1{clip-path:url(#SVGID_2_);}
	.st2{clip-path:url(#SVGID_4_);fill:none;stroke:#010202;stroke-width:1.8524;}
	.st3{clip-path:url(#SVGID_4_);}
	.st4{fill:#010202;}
	.st5{font-family:'Montserrat-Bold';}
	.st6{font-size:88.9162px;}
</style>
<g id="Lager_1" class="st0">
</g>
<g id="Lager_2">
	<g id="Teckning_7_1_">
		<g>
			<defs>
				<rect id="SVGID_1_" x="133.64" y="314" width="366" height="168.44"/>
			</defs>
			<clipPath id="SVGID_2_">
				<use xlink:href="#SVGID_1_"  style="overflow:visible;"/>
			</clipPath>
			<g class="st1">
				<defs>
					<rect id="SVGID_3_" x="133.64" y="314" width="366" height="168.44"/>
				</defs>
				<clipPath id="SVGID_4_">
					<use xlink:href="#SVGID_3_"  style="overflow:visible;"/>
				</clipPath>
				<path class="st2" d="M169.33,327.06c-5.33,0-10.03,0.87-14.09,2.62c-4.06,1.75-7.22,4.21-9.47,7.38
					c-2.25,3.17-3.38,6.89-3.38,11.16c0,3.56,0.89,6.43,2.67,8.62c1.78,2.19,3.91,3.85,6.4,4.98c2.49,1.13,5.66,2.22,9.51,3.29
					c2.67,0.83,4.71,1.51,6.14,2.05c1.42,0.53,2.61,1.23,3.56,2.09c0.95,0.86,1.42,1.94,1.42,3.25c0,1.9-0.74,3.33-2.22,4.31
					c-1.48,0.98-3.53,1.47-6.14,1.47c-3.32,0-7.04-0.9-11.16-2.71c-4.12-1.81-7.6-4.1-10.45-6.89l-7.56,12.8
					c3.44,3.14,7.62,5.6,12.54,7.38c4.92,1.78,9.99,2.67,15.2,2.67c4.98,0,9.53-0.82,13.65-2.45c4.12-1.63,7.38-4.06,9.78-7.29
					s3.6-7.13,3.6-11.69c0-3.68-0.9-6.65-2.71-8.94c-1.81-2.28-3.97-4-6.49-5.16c-2.52-1.16-5.71-2.33-9.56-3.51
					s-6.65-2.28-8.4-3.29c-1.75-1.01-2.59-2.46-2.53-4.36c0.12-1.48,0.8-2.61,2.05-3.38s2.9-1.16,4.98-1.16
					c2.55,0,5.65,0.64,9.29,1.91c3.65,1.27,6.98,2.89,10,4.85l7.56-12.98c-3.14-2.13-6.85-3.84-11.11-5.11
					C178.13,327.7,173.78,327.06,169.33,327.06z"/>
				<polygon class="st2" points="200.81,328.22 198.14,341.64 216.73,341.64 206.86,390.55 223.13,390.55 233,341.64 251.58,341.64 
					254.25,328.22 				"/>
				<polygon class="st2" points="310.08,328.22 260.91,328.22 248.47,390.55 298.53,390.55 301.1,377.57 267.23,377.57 
					269.63,365.74 299.41,365.74 301.99,352.85 272.21,352.85 274.61,341.2 307.51,341.2 				"/>
				<polygon class="st2" points="370.1,328.22 320.93,328.22 308.48,390.55 358.54,390.55 361.12,377.57 327.24,377.57 
					329.64,365.74 359.43,365.74 362.01,352.85 332.22,352.85 334.62,341.2 367.52,341.2 				"/>
				<polygon class="st2" points="397.22,328.22 380.95,328.22 368.5,390.55 411.18,390.55 413.93,376.68 387.53,376.68 				"/>
				<g class="st3">
					<text transform="matrix(1 0 0 1 215.9922 460.2148)" class="st4 st5 st6">MEET</text>
				</g>
			</g>
		</g>
	</g>
</g>
</svg>
